<?xml version="1.0" encoding="utf-8"?>
<!-- Generator: Adobe Illustrator 19.2.0, SVG Export Plug-In . SVG Version: 6.00 Build 0)  -->
<svg version="1.1" id="Vector_Graphics" xmlns="http://www.w3.org/2000/svg" xmlns:xlink="http://www.w3.org/1999/xlink" x="0px"
	 y="0px" width="4901px" height="3980.6px" viewBox="0 0 4901 3980.6" style="enable-background:new 0 0 4901 3980.6;"
	 xml:space="preserve">
<style type="text/css">
	.st0{fill:url(#SVGID_1_);}
	.st1{fill:url(#SVGID_2_);}
	.st2{fill:url(#SVGID_3_);}
	.st3{fill:#121212;}
	.st4{fill:url(#SVGID_4_);}
	.st5{opacity:0.32;fill:#FFFFFF;enable-background:new    ;}
	.st6{fill:#2B2C2D;}
	.st7{fill:#060808;}
	.st8{opacity:0.19;fill:url(#SVGID_5_);enable-background:new    ;}
</style>
<radialGradient id="SVGID_1_" cx="2457.5498" cy="2909.4507" r="2443.4502" gradientTransform="matrix(0.8299 0 0 5.298734e-02 417.9919 3696.9641)" gradientUnits="userSpaceOnUse">
	<stop  offset="0" style="stop-color:#231F20;stop-opacity:0.6"/>
	<stop  offset="0.4311" style="stop-color:#231F20;stop-opacity:0.2"/>
	<stop  offset="1" style="stop-color:#000000;stop-opacity:0"/>
</radialGradient>
<ellipse class="st0" cx="2457.5" cy="3851.1" rx="2027.9" ry="129.5"/>
<radialGradient id="SVGID_2_" cx="2486.1409" cy="3856.9595" r="2443.4502" gradientTransform="matrix(0.4547 0 0 2.795230e-02 1340.1263 3759.4893)" gradientUnits="userSpaceOnUse">
	<stop  offset="0" style="stop-color:#231F20;stop-opacity:0.6"/>
	<stop  offset="0.6893" style="stop-color:#231F20;stop-opacity:0.2"/>
	<stop  offset="1" style="stop-color:#000000;stop-opacity:0"/>
</radialGradient>
<ellipse class="st1" cx="2470.5" cy="3867.3" rx="1111" ry="68.3"/>
<g>
	<g>
		
			<linearGradient id="SVGID_3_" gradientUnits="userSpaceOnUse" x1="2493.0994" y1="99.6086" x2="2493.0994" y2="861.0408" gradientTransform="matrix(1 0 0 1 0 3018)">
			<stop  offset="0" style="stop-color:#CACDCC"/>
			<stop  offset="0.3742" style="stop-color:#FFFFFF"/>
			<stop  offset="0.6258" style="stop-color:#747776"/>
			<stop  offset="0.6741" style="stop-color:#7C7F7E"/>
			<stop  offset="0.7478" style="stop-color:#919393"/>
			<stop  offset="0.8344" style="stop-color:#B2B4B4"/>
			<stop  offset="1" style="stop-color:#C8CBCA"/>
		</linearGradient>
		<path class="st2" d="M3527.7,3829.1c0,0-203.5-159.4-250.9-196.7c-47.5-37.3-50.8-98.4-64.4-152.6
			c-13.6-54.2-47.5-366.2-47.5-366.2l-671.8,3.3l-671.8-3.3c0,0-33.9,311.9-47.5,366.2s-17,115.3-64.4,152.6
			c-47.5,37.3-250.9,196.7-250.9,196.7s-17,23.7,101.7,37.3c59,6.7,280.3,6,493,3.9c94.8,11,262,18.4,452.6,18.4
			c189.3,0,355.5-7.2,450.6-18.1c205.3,1.9,412.7,2.4,469.5-4.1C3544.7,3852.8,3527.7,3829.1,3527.7,3829.1z"/>
		<path class="st3" d="M3529.1,3829.3c-7.3,22-82.9,31.7-82.9,31.7l-952.3,16.5l-952.2-16.5c0,0-75.6-9.7-82.9-31.7
			c0,0-7.3,34.2,56.1,48.8c53.2,12.3,729.8,17.7,946.1,19.1l-0.1,0.4c0,0,11.9-0.1,33-0.2c21.1,0.1,33.1,0.2,33.1,0.2v-0.4
			c216.2-1.4,892.8-6.8,946.1-19.1C3536.4,3863.5,3529.1,3829.3,3529.1,3829.3z"/>
	</g>
	
		<linearGradient id="SVGID_4_" gradientUnits="userSpaceOnUse" x1="222.9393" y1="242.6567" x2="4846.2935" y2="-158.0341" gradientTransform="matrix(1 0 0 1 0 3018)">
		<stop  offset="0" style="stop-color:#A6A6A6"/>
		<stop  offset="1" style="stop-color:#E2E4E3"/>
	</linearGradient>
	<path class="st4" d="M0,2778.6v444.2c0,80.6,65.3,145.9,145.9,145.9H4755c80.6,0,145.9-65.3,145.9-145.9v-444.2H0z"/>
	<path d="M4755,0H145.9C65.3,0,0,65.3,0,145.9v2632.7h4901V145.9C4901,65.3,4835.7,0,4755,0z M4695.5,2606.8h-4490V171.7h4490
		V2606.8z"/>
	<rect y="2778.6" class="st5" width="4901" height="6"/>
	<g>
		<path class="st6" d="M2544.2,3020.3c-15-13.8-33.1-16.2-40.3-16.5c-21-2.1-41,12.4-51.7,12.4c-10.6,0-27.1-12-44.6-11.7
			c-22.9,0.4-44,13.4-55.8,33.9c-18.7,32.6-11.6,77.5,3.7,111.5c-0.5-3.3-0.8-6.7-0.8-10.1
			C2354.6,3075.3,2438.8,3022.8,2544.2,3020.3z"/>
		<path class="st6" d="M2490.2,2981.7c9.4-11.4,15.8-27.3,14-43.1c-13.6,0.6-30,9-39.8,20.5c-8.7,10.1-16.4,26.2-14.3,41.8
			C2465.3,3002,2480.8,2993.1,2490.2,2981.7z"/>
		<path class="st7" d="M2411.7,3208.6c17.1-0.7,23.6-11.1,44.2-11.1c20.7,0,26.5,11,44.6,10.6c18.4-0.3,30-16.7,41.3-33.2
			c13-19,18.3-37.5,18.7-38.4c-0.4-0.2-35.9-13.7-36.3-54.6c-0.4-34.2,27.8-50.6,29.1-51.4c-2.8-4-5.9-7.3-9.1-10.2
			c-105.4,2.5-189.6,55-189.6,119.6c0,3.4,0.4,6.7,0.8,10.1c4.1,9.1,8.7,17.5,13.6,24.6C2380.4,3190.9,2394,3209.3,2411.7,3208.6z"
			/>
	</g>
</g>
<linearGradient id="SVGID_5_" gradientUnits="userSpaceOnUse" x1="2477.1001" y1="2508.7" x2="4899.7998" y2="2508.7" gradientTransform="matrix(1 0 0 -1 0 3898)">
	<stop  offset="0" style="stop-color:#FFFFFF;stop-opacity:0"/>
	<stop  offset="1" style="stop-color:#FFFFFF"/>
</linearGradient>
<path class="st8" d="M4899.8,145.9c0-80.6-65.3-145.9-145.9-145.9h-792.4L2477.1,2778.6h2422.7V145.9z"/>
</svg>
