<?xml version="1.0" encoding="utf-8"?>
<!-- Generator: Adobe Illustrator 19.2.0, SVG Export Plug-In . SVG Version: 6.00 Build 0)  -->
<svg version="1.1" id="Layer_1" xmlns="http://www.w3.org/2000/svg" xmlns:xlink="http://www.w3.org/1999/xlink" x="0px" y="0px"
	 width="2328.8px" height="4714.4px" viewBox="0 0 2328.8 4714.4" style="enable-background:new 0 0 2328.8 4714.4;"
	 xml:space="preserve">
<style type="text/css">
	.st0{fill:url(#SVGID_2_);}
	.st1{fill:#A6A6A6;}
	.st2{fill:#1A1A1C;}
	.st3{opacity:0.4;enable-background:new    ;}
	.st4{opacity:0.14;fill:url(#SVGID_3_);enable-background:new    ;}
</style>
<radialGradient id="SVGID_2_" cx="1156.9296" cy="11070.9844" r="1391.6527" gradientTransform="matrix(0.7603 0 0 5.298734e-02 279.5867 4053.9878)" gradientUnits="userSpaceOnUse">
	<stop  offset="0" style="stop-color:#231F20;stop-opacity:0.6"/>
	<stop  offset="0.4311" style="stop-color:#231F20;stop-opacity:0.2"/>
	<stop  offset="1" style="stop-color:#000000;stop-opacity:0"/>
</radialGradient>
<ellipse class="st0" cx="1159.2" cy="4640.6" rx="1058.1" ry="73.7"/>
<g>
	<path class="st1" d="M10.7,627.2c-0.9,0-1.7,0.3-2.5,0.5v-0.2c-0.3,0.1-0.5,0.2-0.8,0.3c-0.6,0.2-1.1,0.4-1.6,0.7
		c-0.6,0.3-1.2,0.7-1.7,1.2c-0.4,0.4-0.9,0.7-1.2,1.1c-0.5,0.6-0.9,1.3-1.3,2c-0.2,0.4-0.5,0.8-0.7,1.2c-0.5,1.2-0.8,2.5-0.8,3.9
		v156.8c0,1.4,0.3,2.7,0.8,3.9c0.2,0.4,0.4,0.8,0.7,1.2c0.4,0.7,0.8,1.4,1.3,2c0.4,0.4,0.8,0.8,1.2,1.1c0.5,0.4,1.1,0.8,1.7,1.2
		c0.5,0.3,1.1,0.5,1.6,0.7c0.3,0.1,0.5,0.3,0.8,0.3v-0.2c0.8,0.2,1.6,0.5,2.5,0.5h5.7V627.2H10.7z"/>
	<path class="st1" d="M10.7,959.9c-0.9,0-1.7,0.3-2.5,0.5v-0.2c-0.3,0.1-0.5,0.2-0.8,0.3c-0.6,0.2-1.1,0.4-1.6,0.7
		c-0.6,0.3-1.2,0.7-1.7,1.2c-0.4,0.4-0.9,0.7-1.2,1.1c-0.5,0.6-0.9,1.3-1.3,2c-0.2,0.4-0.5,0.8-0.7,1.2c-0.5,1.2-0.8,2.5-0.8,3.9
		v315.8c0,1.4,0.3,2.7,0.8,3.9c0.2,0.4,0.4,0.8,0.7,1.2c0.4,0.7,0.8,1.4,1.3,2c0.4,0.4,0.8,0.8,1.2,1.1c0.5,0.4,1.1,0.8,1.7,1.2
		c0.5,0.3,1.1,0.5,1.7,0.7c0.3,0.1,0.5,0.3,0.8,0.3v-0.2c0.8,0.2,1.6,0.5,2.5,0.5h5.7V959.9H10.7z"/>
	<path class="st1" d="M14.9,1386.4c-0.9,0-1.7,0.3-2.5,0.5v-0.2c-0.3,0.1-0.5,0.2-0.8,0.3c-0.6,0.2-1.1,0.4-1.6,0.7
		c-0.6,0.3-1.2,0.7-1.8,1.2c-0.4,0.3-0.8,0.7-1.2,1.1c-0.6,0.6-1,1.3-1.4,2c-0.2,0.4-0.5,0.7-0.6,1.2c-0.5,1.2-0.8,2.5-0.8,3.9V1713
		c0,1.4,0.3,2.7,0.8,3.9c0.2,0.4,0.4,0.8,0.6,1.2c0.4,0.7,0.8,1.4,1.4,2c0.4,0.4,0.8,0.7,1.2,1.1c0.6,0.4,1.1,0.8,1.7,1.2
		c0.5,0.3,1.1,0.5,1.7,0.7c0.3,0.1,0.5,0.3,0.8,0.3v-0.2c0.8,0.2,1.6,0.5,2.5,0.5h3.3v-337.3L14.9,1386.4L14.9,1386.4z"/>
	<path class="st1" d="M2328,1597.8c0.5-1.5,0.8-3,0.8-4.6v-501.3c0-1.6-0.3-3.1-0.8-4.6c-0.1-0.2-0.1-0.4-0.2-0.7
		c-0.5-1.4-1.3-2.7-2.1-3.8c-0.1-0.2-0.2-0.3-0.4-0.4c-2-2.4-4.8-4.2-7.9-5l0,0l0,0c-1.1-0.3-2.3-0.5-3.5-0.5h-4.5v531.2h4.5
		c4.6,0,8.7-2.1,11.4-5.4c0.1-0.2,0.2-0.3,0.4-0.4c0.9-1.2,1.6-2.4,2.1-3.8C2327.9,1598.3,2327.9,1598.1,2328,1597.8z"/>
	<path class="st1" d="M2202.9,93.8C2110.4,3.1,1976.9,0,1931.6,0H396.1c-45.2,0-178.7,3.1-271.3,93.8
		C29,187.7,13.5,281.9,13.5,433.2v3785.4c0,151.4,15.5,245.5,111.3,339.4c92.5,90.7,226.1,93.8,271.3,93.8h1535.5
		c45.2,0,178.7-3.1,271.3-93.8c95.8-93.9,111.3-188.1,111.3-339.4V433.2C2314.2,281.9,2298.7,187.7,2202.9,93.8z M2175.1,4218.7
		c0,126.8-10.5,182.1-69.6,240c-25.1,24.6-75.7,54-173.8,54H396.1c-98.1,0-148.7-29.4-173.8-54c-59.1-57.9-69.6-113.2-69.6-240
		V433.2c0-126.8,10.5-182.1,69.6-240c25.1-24.6,75.7-54,173.8-54h179.8c8.9,1.1,21.8,6.5,23.1,27.9c1.8,29.4,5.4,68.1,34.5,97.9
		c22.4,23,51.5,33.9,81.7,33.9c65.2,0,837,0,902.2,0c30.2,0,59.2-10.9,81.7-33.9c29.1-29.8,32.7-68.5,34.5-97.9
		c1.3-21.4,14.2-26.7,23.1-27.9h175.1c98.1,0,148.7,29.4,173.8,54c59.1,57.9,69.6,113.2,69.6,240L2175.1,4218.7L2175.1,4218.7z"/>
	<g>
		<g>
			<g>
				<circle class="st2" cx="1414.2" cy="183.3" r="35.4"/>
			</g>
		</g>
	</g>
	<g>
		<g>
			<path id="SVGID_1_" class="st2" d="M1305.7,183.3c0,10.4-8.5,18.9-18.9,18.9H1039c-10.4,0-18.9-8.5-18.9-18.9l0,0
				c0-10.4,8.5-18.9,18.9-18.9h247.8C1297.2,164.4,1305.7,172.8,1305.7,183.3L1305.7,183.3z"/>
		</g>
	</g>
	<g>
		<g>
			<g>
				<path d="M349.4,277.8c0.8,2.7,4.1,5.4,9.6,5.4c10.5,0,14.4-10.2,14.1-22.7h-0.5c-1.8,4.7-6.6,8.8-14.5,8.8
					c-10.5,0-19-7.2-19-19.8c0-12.7,9.1-20.2,21-20.2c10.8,0,21.6,6.4,21.6,29.8c0,21.1-7.3,32-22.8,32c-11.4,0-17.5-6.5-18.3-13.3
					L349.4,277.8L349.4,277.8z M359.6,237.2c-6.4,0-11.7,4.6-11.7,12.4c0,8.1,5.5,12.1,11.9,12.1c6.2,0,11.9-4,11.9-12
					C371.7,241.8,366.5,237.2,359.6,237.2z"/>
				<path d="M401.3,248.2c3.8,0,6.7,2.8,6.7,6.8c0,3.9-2.9,6.7-6.7,6.7c-3.6,0-6.5-2.7-6.5-6.7C394.8,251,397.7,248.2,401.3,248.2z
					 M401.3,277.4c3.8,0,6.7,2.7,6.7,6.8c0,3.9-2.9,6.6-6.7,6.6c-3.6,0-6.5-2.7-6.5-6.6C394.8,280.1,397.7,277.4,401.3,277.4z"/>
				<path d="M457,230.6v39.7h7.6v8.1H457V290h-8.5v-11.7h-28.9v-8.2c7.3-13.2,16-26.4,24.2-39.6H457V230.6z M448.5,270.3v-31.9H448
					c-6.7,10-13.8,21-19.8,31.6v0.4h20.3V270.3z"/>
				<path d="M489.1,290v-49.7h-0.4l-13.7,9.8v-9.2l14.1-10.3h8.8V290H489.1z"/>
			</g>
		</g>
		<g>
			<path d="M1827.4,287.3c0,1.5-1.2,2.7-2.7,2.7h-8c-1.5,0-2.7-1.2-2.7-2.7v-54c0-1.5,1.2-2.7,2.7-2.7h8c1.5,0,2.7,1.2,2.7,2.7
				V287.3z"/>
			<path d="M1802.9,287.3c0,1.5-1.2,2.7-2.7,2.7h-8c-1.5,0-2.7-1.2-2.7-2.7v-39.5c0-1.5,1.2-2.7,2.7-2.7h8c1.5,0,2.7,1.2,2.7,2.7
				V287.3z"/>
			<path d="M1778.4,287.3c0,1.5-1.2,2.7-2.7,2.7h-8c-1.5,0-2.7-1.2-2.7-2.7v-27.5c0-1.5,1.2-2.7,2.7-2.7h8c1.5,0,2.7,1.2,2.7,2.7
				V287.3z"/>
			<path d="M1753.9,287.3c0,1.5-1.2,2.7-2.7,2.7h-8c-1.5,0-2.7-1.2-2.7-2.7v-17.8c0-1.5,1.2-2.7,2.7-2.7h8c1.5,0,2.7,1.2,2.7,2.7
				V287.3z"/>
		</g>
		<g>
			<path d="M1867.9,257.7c-3.6-3.6-7.2-7-10.7-10.4c21.9-22.3,60.3-23.2,83.4,0c-3.5,3.5-6.9,7-10.5,10.6
				c-8.7-8.2-19.1-12.6-31.1-12.6C1886.9,245.3,1876.6,249.6,1867.9,257.7z"/>
			<path d="M1883.2,273.2c-3.5-3.5-7.1-6.9-10.6-10.4c13.7-14.1,38.3-14.5,52.4-0.1c-3.5,3.5-6.9,7-10.4,10.6
				C1904.1,265.1,1893.7,265.1,1883.2,273.2z"/>
			<path d="M1909.2,278.6c-3.5,3.5-6.9,7-10.3,10.4c-3.5-3.5-6.9-6.9-10.4-10.3C1893,273.7,1903.3,272.8,1909.2,278.6z"/>
		</g>
		<g>
			<path class="st3" d="M2074.1,229.1h-91.6c-7.4,0-13.3,6-13.3,13.3v35.7c0,7.3,6,13.3,13.3,13.3h91.6c7.3,0,13.3-6,13.3-13.3
				v-35.7C2087.4,235.1,2081.5,229.1,2074.1,229.1z M2082.1,278.2c0,4.4-3.6,8-8,8h-91.6c-4.4,0-8-3.6-8-8v-35.7c0-4.4,3.6-8,8-8
				h91.6c4.4,0,8,3.6,8,8V278.2z"/>
			<path d="M2076.8,278.2c0,1.5-1.2,2.7-2.7,2.7h-91.6c-1.5,0-2.7-1.2-2.7-2.7v-35.7c0-1.5,1.2-2.7,2.7-2.7h91.6
				c1.5,0,2.7,1.2,2.7,2.7V278.2z"/>
			<path d="M2100.2,260.3c0,4-3.2,7.2-7.2,7.2c0-4.9,0-10.3,0-14.4C2097,253.1,2100.2,256.4,2100.2,260.3z"/>
		</g>
	</g>
	<path d="M2189.7,107.3c-41.1-40.3-119.3-88.4-258.1-88.4H396c-138.7,0-216.8,48.1-258,88.4c-89.9,88.1-105.7,175.3-105.7,326
		v3785.4c0,150.6,15.8,237.8,105.7,326c41.1,40.3,119.3,88.4,258.1,88.4H1932c138.5,0,216.6-48.1,257.7-88.4
		c89.9-88.1,105.7-175.3,105.7-326V433.2C2295.4,282.6,2279.6,195.4,2189.7,107.3z M2174.1,4218.7c0,126.8-10.5,182.1-69.6,240
		c-25.1,24.6-75.7,54-173.8,54H395.1c-98.1,0-148.7-29.4-173.8-54c-59.1-57.9-69.6-113.2-69.6-240V433.2
		c0-126.8,10.5-182.1,69.6-240c25.1-24.6,75.7-54,173.8-54h179.8c8.9,1.1,21.8,6.5,23.1,27.9c1.8,29.4,5.4,68.1,34.5,97.9
		c22.4,23,51.5,33.9,81.7,33.9c65.2,0,837,0,902.2,0c30.2,0,59.2-10.9,81.7-33.9c29.1-29.8,32.7-68.5,34.5-97.9
		c1.3-21.4,14.2-26.7,23.1-27.9h175.1c98.1,0,148.7,29.4,173.8,54c59.1,57.9,69.6,113.2,69.6,240L2174.1,4218.7L2174.1,4218.7z"/>
</g>
<linearGradient id="SVGID_3_" gradientUnits="userSpaceOnUse" x1="394.7999" y1="2281.9001" x2="2291.8" y2="2281.9001" gradientTransform="matrix(1 0 0 -1 0 4652)">
	<stop  offset="0" style="stop-color:#FFFFFF"/>
	<stop  offset="1" style="stop-color:#FFFFFF"/>
</linearGradient>
<path class="st4" d="M2186.2,109.9c89.8,88,105.6,175.1,105.6,325.6v3780.9c0,150.5-15.8,237.6-105.6,325.6
	c-41.1,40.3-119.1,88.3-257.4,88.3h-1534L2186.2,109.9z"/>
</svg>
